<?xml version="1.0" encoding="UTF-8" standalone="no"?>
<!-- Created with Inkscape (http://www.inkscape.org/) -->
<svg
   xmlns:dc="http://purl.org/dc/elements/1.1/"
   xmlns:cc="http://creativecommons.org/ns#"
   xmlns:rdf="http://www.w3.org/1999/02/22-rdf-syntax-ns#"
   xmlns:svg="http://www.w3.org/2000/svg"
   xmlns="http://www.w3.org/2000/svg"
   xmlns:xlink="http://www.w3.org/1999/xlink"
   xmlns:sodipodi="http://sodipodi.sourceforge.net/DTD/sodipodi-0.dtd"
   xmlns:inkscape="http://www.inkscape.org/namespaces/inkscape"
   width="76.183968"
   height="95.395721"
   id="svg3196"
   sodipodi:version="0.32"
   inkscape:version="0.46"
   version="1.0"
   sodipodi:docname="icon.svg"
   inkscape:output_extension="org.inkscape.output.svg.inkscape">
  <defs
     id="defs3198">
    <linearGradient
       id="linearGradient3181">
      <stop
         style="stop-color:#ffffff;stop-opacity:1;"
         offset="0"
         id="stop3183" />
      <stop
         id="stop3189"
         offset="0.49468446"
         style="stop-color:#ffffff;stop-opacity:0.49803922;" />
      <stop
         style="stop-color:#ffffff;stop-opacity:0.24705882;"
         offset="0.72846067"
         id="stop3191" />
      <stop
         style="stop-color:#ffffff;stop-opacity:0;"
         offset="1"
         id="stop3185" />
    </linearGradient>
    <linearGradient
       inkscape:collect="always"
       xlink:href="#linearGradient3181"
       id="linearGradient3187"
       x1="-45.329689"
       y1="162.49236"
       x2="-22.292704"
       y2="170.30569"
       gradientUnits="userSpaceOnUse"
       gradientTransform="translate(-296.88095,-206.23793)" />
    <inkscape:perspective
       sodipodi:type="inkscape:persp3d"
       inkscape:vp_x="0 : 526.18109 : 1"
       inkscape:vp_y="0 : 1000 : 0"
       inkscape:vp_z="744.09448 : 526.18109 : 1"
       inkscape:persp3d-origin="372.04724 : 350.78739 : 1"
       id="perspective3204" />
  </defs>
  <sodipodi:namedview
     id="base"
     pagecolor="#ffffff"
     bordercolor="#666666"
     borderopacity="1.0"
     gridtolerance="10000"
     guidetolerance="10"
     objecttolerance="10"
     inkscape:pageopacity="0.0"
     inkscape:pageshadow="2"
     inkscape:zoom="2.8"
     inkscape:cx="47.922232"
     inkscape:cy="36.207701"
     inkscape:document-units="px"
     inkscape:current-layer="layer1"
     showgrid="false"
     inkscape:window-width="640"
     inkscape:window-height="701"
     inkscape:window-x="214"
     inkscape:window-y="80" />
  <metadata
     id="metadata3201">
    <rdf:RDF>
      <cc:Work
         rdf:about="">
        <dc:format>image/svg+xml</dc:format>
        <dc:type
           rdf:resource="http://purl.org/dc/dcmitype/StillImage" />
      </cc:Work>
    </rdf:RDF>
  </metadata>
  <g
     inkscape:label="Layer 1"
     inkscape:groupmode="layer"
     id="layer1"
     transform="translate(383.80627,75.335678)">
    <path
       style="fill:url(#linearGradient3187);fill-opacity:1;fill-rule:evenodd;stroke:none;stroke-width:1px;stroke-linecap:butt;stroke-linejoin:miter;stroke-opacity:1"
       d="M -359.94219,5.6697857 L -358.46035,-12.089834 L -367.27729,-36.540184 L -373.06096,-54.614124 C -366.84322,-57.895884 -361.9277,-57.922084 -356.36108,-54.692724 L -351.828,-64.156294 L -341.30694,-61.720234 L -339.22338,-73.586174 L -330.74995,-73.215714 L -330.62871,-55.798484 L -311.36031,-49.368754 L -311.36031,9.8009857 C -318.57904,12.964856 -325.14666,13.524286 -333.0165,13.432606 L -359.94219,5.6697857 z"
       id="path4212"
       sodipodi:nodetypes="cccccccccccccc"
       inkscape:export-filename="/Users/dannpg/Desktop/trayicon-18.png"
       inkscape:export-xdpi="16.538912"
       inkscape:export-ydpi="16.538912" />
    <path
       style="fill:none;fill-opacity:1;fill-rule:evenodd;stroke:#313131;stroke-width:4.5;stroke-linecap:round;stroke-linejoin:miter;stroke-miterlimit:4;stroke-dasharray:none;stroke-opacity:1"
       d="M -359.81724,0.057325704 C -359.22178,-15.361254 -362.52687,-31.159384 -370.89954,-44.263244 C -373.31179,-48.116744 -374.66324,-55.093644 -369.04788,-56.858564 C -361.52418,-58.608244 -354.12368,-54.908684 -347.10903,-52.627324 C -341.77954,-50.615924 -336.54735,-48.360304 -331.27212,-46.213394"
       id="path4160"
       inkscape:export-filename="/Users/dannpg/Desktop/trayicon-18.png"
       inkscape:export-xdpi="16.538912"
       inkscape:export-ydpi="16.538912" />
    <path
       style="fill:none;fill-opacity:1;fill-rule:evenodd;stroke:#313131;stroke-width:4.5;stroke-linecap:round;stroke-linejoin:miter;stroke-miterlimit:4;stroke-dasharray:none;stroke-opacity:1"
       d="M -354.52258,-59.334934 C -354.36395,-61.841394 -355.26911,-66.049284 -351.26503,-65.475294 C -347.70115,-65.495614 -344.53725,-63.534074 -341.28989,-62.312114 C -337.88521,-60.761504 -334.6165,-58.935594 -331.27212,-57.263114"
       id="path4162"
       inkscape:export-filename="/Users/dannpg/Desktop/trayicon-18.png"
       inkscape:export-xdpi="16.538912"
       inkscape:export-ydpi="16.538912" />
    <path
       sodipodi:nodetypes="cccccc"
       style="fill:none;fill-opacity:1;fill-rule:evenodd;stroke:#313131;stroke-width:4.5;stroke-linecap:round;stroke-linejoin:miter;stroke-miterlimit:4;stroke-dasharray:none;stroke-opacity:1"
       d="M -339.55941,-64.859804 C -339.61221,-68.160644 -339.65142,-71.692124 -338.73407,-72.786104 C -338.15985,-73.335214 -333.9563,-73.159524 -332.51076,-72.008534 C -331.76274,-71.437794 -331.56197,-70.649164 -331.52153,-69.715704 C -331.32158,-66.917914 -331.68047,-64.114974 -331.49944,-61.316394 C -331.50029,-61.193044 -331.5013,-61.069704 -331.50233,-60.946354"
       id="path4164"
       inkscape:export-filename="/Users/dannpg/Desktop/trayicon-18.png"
       inkscape:export-xdpi="16.538912"
       inkscape:export-ydpi="16.538912" />
    <path
       style="fill:#007dc5;fill-opacity:1;fill-rule:evenodd;stroke:none;stroke-width:1px;stroke-linecap:butt;stroke-linejoin:miter;stroke-opacity:1"
       d="M -383.17121,9.0854457 C -377.38331,5.3075257 -379.05352,6.7990357 -374.43558,4.3371357 C -367.95786,2.6461057 -365.60513,2.7668057 -360.90942,2.8250857 C -350.47809,5.0085057 -342.84122,7.6465057 -333.98712,10.643876 C -328.35617,12.411306 -322.3882,12.213526 -316.64161,11.241656 C -311.99841,10.045206 -304.8907,7.4821557 -308.7096,10.483156 C -313.58935,13.517856 -317.12531,13.934156 -322.81825,14.291406 C -334.22968,14.990656 -344.81653,9.7676857 -355.73856,7.3122157 C -366.10643,4.8965557 -363.34337,5.8064157 -372.0184,6.2158257 C -378.65348,8.2187757 -386.03711,13.387946 -383.17121,9.0854457 z"
       id="path4200"
       sodipodi:nodetypes="cccccccccc"
       inkscape:export-filename="/Users/dannpg/Desktop/trayicon-18.png"
       inkscape:export-xdpi="16.538912"
       inkscape:export-ydpi="16.538912" />
    <path
       style="fill:#007dc5;fill-opacity:1;fill-rule:evenodd;stroke:none;stroke-width:1px;stroke-linecap:butt;stroke-linejoin:miter;stroke-opacity:1"
       d="M -368.43825,17.833136 C -364.9965,14.606926 -360.65313,11.624506 -355.71813,11.933926 C -349.89504,11.537786 -344.06119,12.745606 -338.69379,14.973726 C -334.21273,16.631546 -329.56593,18.153796 -324.7358,18.143446 C -320.10086,18.236146 -317.14724,18.170096 -311.88338,16.115026 C -310.27369,16.646056 -314.69813,18.497406 -315.30222,18.905966 C -321.57759,20.745496 -327.2712,20.080876 -332.83512,19.018126 C -338.01286,17.909146 -342.97757,16.263646 -348.03854,14.741016 C -351.91959,14.426576 -354.1889,14.058116 -359.56774,14.423336 C -362.48621,15.598306 -365.51978,16.658166 -368.43825,17.833136 z"
       id="path4202"
       sodipodi:nodetypes="cccccccccc"
       inkscape:export-filename="/Users/dannpg/Desktop/trayicon-18.png"
       inkscape:export-xdpi="16.538912"
       inkscape:export-ydpi="16.538912" />
  </g>
</svg>
